# xmcd
#
# Track frame offsets:
#	150
#	2777
#	20200
#	24840
#	52647
#	87322
#	108907
#	118285
#	128887
#	147285
#	167497
#	171677
#	185782
#	209580
#	210840
#	245200
#	263500
# Disc length: 3905 seconds
# Revision: 1
# Processed by: cddbd v1.5.1PL2 Copyright (c) Steve Scherf et al.
#
# Submitted via: libkcddb 0.31
#
DISCID=f10f3f11
DTITLE=Fred Kellner und die famosen Soulsisters - I'm A Soulband
DYEAR=1994
DGENRE=Soul
TTITLE0=crazy stadtgarten
TTITLE1=brick house (THE KELLNODORES)
TTITLE2=introducing the hardworkest grandfather
TTITLE3=superbad (FREDGODFATHEROFKELLNERSOUL)
TTITLE4=that's the way of the earth (EARTH, FRED and KELLNER)
TTITLE5=africano (INSTRUHORNYMENTAL - E, F and k)
TTITLE6=just another 6T's medley
TTITLE7=love theme (introducing the SOUL SISTERS)
TTITLE8=best of my love (THE EMOTION SISTERS)
TTITLE9=car wash (ROSE KELLNER ROYCE)
TTITLE10=crazy kammgarn (introducing the KELLNER BROTHERS)
TTITLE11=U R everything (THE KELLNERLISTICS)
TTITLE12=once U get started (CHAKA KHELLNER)
TTITLE13=tush one
TTITLE14=in the world (FREDDY WATSON KELLNER)
TTITLE15=fire (KELLNERS FINEST)
TTITLE16=on the radio (DONNA KELLNER)
EXTD=
EXTT0=
EXTT1=
EXTT2=
EXTT3=
EXTT4=
EXTT5=
EXTT6=
EXTT7=
EXTT8=
EXTT9=
EXTT10=
EXTT11=
EXTT12=
EXTT13=
EXTT14=
EXTT15=
EXTT16=
PLAYORDER=
